<?xml version="1.0" encoding="utf-8"?>
<!-- Generator: Adobe Illustrator 18.1.0, SVG Export Plug-In . SVG Version: 6.00 Build 0)  -->
<svg version="1.1" xmlns="http://www.w3.org/2000/svg" xmlns:xlink="http://www.w3.org/1999/xlink" x="0px" y="0px"
	 viewBox="0 0 1400 1400" enable-background="new 0 0 1400 1400" xml:space="preserve">
<g id="katman_2">
</g>
<g id="katman_1">
	<g>
		<path fill-rule="evenodd" clip-rule="evenodd" fill="#231F20" d="M669.9,774.1c-166,59.2-127.6,149.3-145.4,248
			c-2.2,14.3-4.4,28.6-6.7,42.9c150.2,7.7,301.8-21.3,421.3-117.3c82.3-71.2,124.6-167.3,107.1-276.2
			c-14.3-77.7-55.7-144.6-110.4-200.4c-3.2-3.4-6.5-6.7-10-9.9v-0.2c-1.5-1.4-3.2-2.9-4.7-4.4c-0.2-0.2-0.4-0.5-0.6-0.6
			c-0.7-0.9-1.5-1.6-2.4-2.4c-1-0.8-2-1.6-3-2.3c-4.7-5.2-10.6-9.4-16-13.8c-0.2-0.2-0.4-0.4-0.6-0.6c-0.6-0.6-1.3-1.2-1.7-1.9
			c-1-0.7-1.9-1.4-3-2.2c-2-1.5-4-3-6-4.5c-1-0.8-1.9-1.6-3-2.5c-0.8-0.5-1.6-1.1-2.4-1.7c-1-0.8-2-1.6-2.9-2.3c-1-0.7-2-1.5-3-2.3
			c-1-0.7-2-1.5-3-2.3c-1-0.7-2-1.3-3-2c-1-0.7-2-1.5-3-2.2c-0.8-0.7-1.5-1.3-2.3-1.9c-0.4-0.4-0.8-0.6-1.1-1.1
			c-0.8-0.5-1.6-1-2.4-1.5c-0.8-0.5-1.6-1-2.4-1.6c-0.5-0.5-1.1-0.9-1.7-1.3c-0.8-0.5-1.6-1-2.5-1.4c-0.6-0.5-1.2-0.9-1.8-1.3
			c-1.4-0.9-2.8-1.8-4.1-2.8c-0.8-0.5-1.6-1.1-2.4-1.6c-0.4-0.3-0.7-0.7-1.1-1c-0.7-0.6-1.6-1-2.5-1.4c-0.8-0.5-1.6-0.9-2.4-1.4
			c-1.4-0.9-2.7-1.8-4.1-2.6c-0.6-0.5-1.2-0.9-1.8-1.3c-0.5-0.4-1.2-0.9-1.7-1.3c-0.8-0.5-1.6-1-2.5-1.4c-0.6-0.3-1.2-0.7-1.8-1
			c-0.6-0.5-1.2-0.8-1.7-1.3c-1-0.6-2-1.1-3-1.6c-0.6-0.3-1.3-0.7-1.8-1c-0.6-0.4-1.1-0.8-1.7-1.3c-1-0.6-2-1.2-3-1.6
			c-0.6-0.3-1.2-0.7-1.8-1c-1.6-0.9-3.2-1.9-4.8-2.8c-0.3-0.2-0.8-0.5-1.1-0.7c-0.8-0.5-1.6-1-2.4-1.4c-1-0.6-2-1.1-3-1.6
			c-0.5-0.2-0.8-0.4-1.3-0.6c-0.8-0.5-1.5-1-2.3-1.4c-1-0.6-2.1-1-3.1-1.6c-0.2-0.1-0.3-0.2-0.6-0.4c-2-1-4-2.1-6-3.2
			c-0.2,0-0.5-0.2-0.6-0.2c-2-1-4-2.1-6-3.1c-0.2-0.1-0.4-0.2-0.6-0.3c-2-1-4-2.1-6-3.1c-0.2,0-0.5-0.1-0.7-0.2c-2-1-4-2.1-6-3
			c-0.4-0.2-0.8-0.4-1.3-0.6c-1.9-1-4-2-6.1-2.9c-0.2-0.1-0.3-0.2-0.5-0.3c-2-0.8-4.1-1.8-6-2.8c-0.2-0.1-0.5-0.2-0.7-0.2
			c3.9,2-4.7-2-6.7-3c-2-0.8-10.6-4.8-6.7-2.9c-64.8-12.9-131.9-14.2-194.3,9.5c30.5,3.9,60.8,10.6,89.9,20.5
			c63.4,21.8,121.5,56.6,164,109.2c35.8,47.3,53.7,105.3,32.7,162.9C809.4,717.3,740,755.2,669.9,774.1"/>
		<path fill-rule="evenodd" clip-rule="evenodd" fill="#231F20" d="M369.9,459.4c-23.2,29.2-25.4,64.8-10.5,98.3
			c21,42.6,60.6,70.3,104,87c50.1,19.4,104.2,23.7,156.5,11.7c40.2-10.5,79.8-31.1,98.1-70.4c15.6-33.3,8.1-68.3-12.2-97.8
			c-25.2-33.9-61.7-56.2-101.2-69.9c-42.7-14.8-88.1-19.1-132.7-12.3C433.3,412.8,395,427.8,369.9,459.4"/>
	</g>
</g>
</svg>
