<?xml version="1.0" encoding="utf-8"?>
<!-- Generator: Adobe Illustrator 18.1.0, SVG Export Plug-In . SVG Version: 6.00 Build 0)  -->
<svg version="1.1" xmlns="http://www.w3.org/2000/svg" xmlns:xlink="http://www.w3.org/1999/xlink" x="0px" y="0px"
	 viewBox="0 0 1400 1400" enable-background="new 0 0 1400 1400" xml:space="preserve">
<g id="katman_2">
	<g>
		<path d="M854,718.4v-8.3c76-23.9,136.6-76.5,136.6-156.1c0-64.1-28.1-112-68.1-140.6c-44.2-31.8-100.3-51.6-224.6-51.6
			c-107.8,0-191.9,11.9-251.9,19.8V1039h152V778h72.1c83.8,0,124.3,32.6,136.4,100.3c19.8,80.1,31.8,135.7,51.5,160.7h160.4
			c-11.9-25-27.8-60.6-48.1-160.5C950.1,790.5,918,738.2,854,718.4z M673.8,670H602V481.6c16-3.6,44.2-7.7,84.4-7.7
			c96.1,0,139.9,40.3,139.9,100.2C826.4,642.1,758.6,670,673.8,670z"/>
		<path d="M706,41.2c-380.6,0-681,288.4-681,657c0,368.6,300.4,660.7,677.4,660.7c375.9,0,672.6-292.1,672.6-660.7
			C1375,329.6,1078.2,41.2,706,41.2z M706,1222.9c-292,0-512.3-232.6-512.3-524.8c0-288.4,220.2-524.8,504-524.8
			c293,0,509,236.4,509,528.5C1206.8,990.3,990.8,1227,706,1222.9z"/>
	</g>
</g>
<g id="katman_1">
</g>
</svg>
