<?xml version="1.0" encoding="utf-8"?>
<!-- Generator: Adobe Illustrator 18.1.0, SVG Export Plug-In . SVG Version: 6.00 Build 0)  -->
<svg version="1.1" xmlns="http://www.w3.org/2000/svg" xmlns:xlink="http://www.w3.org/1999/xlink" x="0px" y="0px"
	 viewBox="0 0 3864 865" enable-background="new 0 0 3864 865" xml:space="preserve">
<g id="katman_2">
</g>
<g id="katman_1">
	<g>
		<path d="M1575,654.9h31.1v78.9h0.8c4.1-6.6,8.4-12.8,12.5-18.6l45.1-60.4h38.5l-59.1,73.1l62.9,98.6H1670l-48.4-78.7l-15.5,18.4
			v60.4H1575V654.9z"/>
		<path d="M1820,796.7c0,11.2,0.5,22.2,2,29.8h-28.3l-2.3-13.8h-0.7c-7.4,9.7-20.4,16.5-36.7,16.5c-24.9,0-38.9-18.1-38.9-36.9
			c0-31.1,27.7-47.1,73.6-46.9v-2c0-8.1-3.3-21.6-25.2-21.6c-12.2,0-25,3.8-33.3,9.2l-6.1-20.4c9.1-5.7,25.2-10.9,44.8-10.9
			c39.8,0,51.2,25.2,51.2,52.4V796.7z M1789.4,765.9c-22.2-0.3-43.2,4.3-43.2,23.2c0,12.2,7.9,17.9,17.8,17.9
			c12.7,0,21.6-8.2,24.7-17.1c0.7-2.3,0.7-4.6,0.7-6.9V765.9z"/>
		<path d="M1841.3,808.5l46.6-59.6c6.3-7.7,11.7-13.8,18.1-20.9v-0.5h-60.1v-24.9h98.3v19.1l-45.4,58.3c-6.1,7.4-12,14.5-18.3,21.1
			v0.5h65.2v25h-104.4V808.5z"/>
		<path d="M2063.8,796.7c0,11.2,0.5,22.2,2,29.8h-28.3l-2.3-13.8h-0.8c-7.3,9.7-20.3,16.5-36.6,16.5c-25,0-39-18.1-39-36.9
			c0-31.1,27.8-47.1,73.6-46.9v-2c0-8.1-3.3-21.6-25.2-21.6c-12.2,0-24.9,3.8-33.4,9.2l-6.1-20.4c9.2-5.7,25.2-10.9,44.8-10.9
			c39.7,0,51.2,25.2,51.2,52.4V796.7z M2033.2,765.9c-22.2-0.3-43.3,4.3-43.3,23.2c0,12.2,7.9,17.9,17.8,17.9
			c12.7,0,21.6-8.2,24.7-17.1c0.8-2.3,0.8-4.6,0.8-6.9V765.9z"/>
		<path d="M2096.9,739.4c0-14.3-0.5-26.2-1.1-36.9h27.3l1.5,18.6h0.8c5.6-9.7,19.1-21.4,39.7-21.4c21.6,0,44,14,44,53.2v73.6h-31.3
			v-70.1c0-17.8-6.6-31.3-23.6-31.3c-12.5,0-21.1,8.9-24.5,18.4c-1.1,2.6-1.5,6.4-1.5,9.9v73.1h-31.3V739.4z"/>
		<path d="M2356.8,645.7v145.9c0,12.8,0.5,26.5,1,34.9H2330l-1.5-19.6h-0.5c-7.4,13.7-22.4,22.4-40.2,22.4
			c-29.8,0-53.2-25.2-53.2-63.4c-0.3-41.5,25.7-66.2,55.5-66.2c17,0,29.3,6.9,34.9,16h0.5v-70H2356.8z M2325.5,754.2
			c0-2.5-0.3-5.8-0.8-8.4c-2.8-12-12.7-21.9-27-21.9c-20.1,0-31.3,17.8-31.3,40.7c0,22.9,11.2,39.5,31.1,39.5c12.8,0,24-8.6,27-22.1
			c0.8-2.8,1.1-5.9,1.1-9.2V754.2z"/>
		<rect x="2390.3" y="702.5" width="31.3" height="124"/>
		<path d="M2455.5,742.5c0-16.8-0.3-29-1-40h27l1.3,23.4h0.8c6.1-17.3,20.6-26.2,34.1-26.2c3.1,0,4.8,0.2,7.4,0.8v29.3
			c-2.8-0.5-5.6-0.8-9.4-0.8c-14.7,0-25.2,9.4-28,23.7c-0.5,2.8-0.7,6.1-0.7,9.4v64.4h-31.3V742.5z"/>
		<path d="M2640.1,796.7c0,11.2,0.4,22.2,2,29.8h-28.3l-2.2-13.8h-0.8c-7.4,9.7-20.4,16.5-36.7,16.5c-24.9,0-38.9-18.1-38.9-36.9
			c0-31.1,27.7-47.1,73.6-46.9v-2c0-8.1-3.3-21.6-25.2-21.6c-12.2,0-25,3.8-33.4,9.2l-6.1-20.4c9.1-5.7,25.2-10.9,44.8-10.9
			c39.7,0,51.2,25.2,51.2,52.4V796.7z M2609.5,765.9c-22.2-0.3-43.2,4.3-43.2,23.2c0,12.2,7.9,17.9,17.8,17.9
			c12.7,0,21.6-8.2,24.7-17.1c0.7-2.3,0.7-4.6,0.7-6.9V765.9z"/>
		<path d="M2673.1,739.4c0-14.3-0.5-26.2-1.1-36.9h27.3l1.5,18.6h0.8c5.6-9.7,19.1-21.4,39.7-21.4c21.7,0,44,14,44,53.2v73.6h-31.3
			v-70.1c0-17.8-6.7-31.3-23.7-31.3c-12.5,0-21.1,8.9-24.4,18.4c-1,2.6-1.5,6.4-1.5,9.9v73.1h-31.3V739.4z"/>
		<polygon points="2968.7,750.4 2904,750.4 2904,800.8 2976.3,800.8 2976.3,826.5 2872.7,826.5 2872.7,654.9 2972.5,654.9 
			2972.5,680.6 2904,680.6 2904,724.9 2968.7,724.9 		"/>
		<rect x="2993.3" y="747.8" width="65" height="21.7"/>
		<path d="M3118.5,670.7v31.8h29.8v23.4h-29.8v54.7c0,15.3,4.1,23,16.1,23c5.6,0,8.6-0.3,12.2-1.3l0.5,23.7
			c-4.6,1.8-13,3.3-22.7,3.3c-11.7,0-21.1-3.8-27-10.2c-6.8-7.1-9.9-18.6-9.9-34.9v-58.3h-17.6v-23.4h17.6v-23.2L3118.5,670.7z"/>
		<path d="M3205.3,667.9c0,9.2-6.9,16.8-17.8,16.8c-10.4,0-17.3-7.6-17.3-16.8c0-9.7,7.2-17,17.6-17
			C3198.4,650.8,3205,658.2,3205.3,667.9 M3171.9,702.5h31.3v124h-31.3V702.5z"/>
		<path d="M3328.3,822.7c-6.7,3.1-19.7,6.4-35.2,6.4c-38.7,0-63.9-24.9-63.9-63.4c0-37.2,25.5-65.9,69-65.9
			c11.5,0,23.2,2.5,30.3,5.6l-5.6,23.7c-5.1-2.5-12.4-4.8-23.6-4.8c-24,0-38.2,17.6-38,40.3c0,25.4,16.5,40,38,40
			c10.7,0,18.5-2.3,24.7-4.9L3328.3,822.7z"/>
		<path d="M3447.7,796.7c0,11.2,0.5,22.2,2,29.8h-28.2l-2.3-13.8h-0.8c-7.4,9.7-20.3,16.5-36.7,16.5c-25,0-39-18.1-39-36.9
			c0-31.1,27.8-47.1,73.6-46.9v-2c0-8.1-3.3-21.6-25.2-21.6c-12.2,0-24.9,3.8-33.4,9.2l-6.1-20.4c9.1-5.7,25.2-10.9,44.8-10.9
			c39.7,0,51.2,25.2,51.2,52.4V796.7z M3417.1,765.9c-22.2-0.3-43.3,4.3-43.3,23.2c0,12.2,7.9,17.9,17.8,17.9
			c12.8,0,21.7-8.2,24.7-17.1c0.8-2.3,0.8-4.6,0.8-6.9V765.9z"/>
		<path d="M3480.8,742.5c0-16.8-0.3-29-1.1-40h27l1.2,23.4h0.8c6.1-17.3,20.7-26.2,34.2-26.2c3,0,4.8,0.2,7.4,0.8v29.3
			c-2.8-0.5-5.6-0.8-9.4-0.8c-14.8,0-25.2,9.4-28.1,23.7c-0.5,2.8-0.7,6.1-0.7,9.4v64.4h-31.3V742.5z"/>
		<path d="M3591.2,773.3c0.7,22.4,18,32,38.2,32c14.6,0,24.7-2.3,34.4-5.6l4.6,21.4c-10.8,4.6-25.5,7.9-43.3,7.9
			c-40.2,0-63.9-24.7-63.9-62.6c0-34.4,20.9-66.7,60.6-66.7c40.2,0,53.5,33.1,53.5,60.3c0,5.9-0.5,10.5-1,13.3H3591.2z
			 M3645.7,751.4c0.2-11.4-4.9-30.3-25.8-30.3c-19.3,0-27.4,17.6-28.7,30.3H3645.7z"/>
		<path d="M3736.3,670.7v31.8h29.8v23.4h-29.8v54.7c0,15.3,4.1,23,16.1,23c5.6,0,8.6-0.3,12.2-1.3l0.5,23.7
			c-4.6,1.8-13,3.3-22.7,3.3c-11.7,0-21.1-3.8-27-10.2c-6.9-7.1-9.9-18.6-9.9-34.9v-58.3h-17.6v-23.4h17.6v-23.2L3736.3,670.7z"/>
		<path fill-rule="evenodd" clip-rule="evenodd" d="M1706.8,589.8V105c0-15.7,5.2-28.8,15.7-39.3c11.6-11.6,25.2-17.8,40.9-18.9
			h108.6l107.1,413.8l107-413.8h165.3v543h-103.9V152.3l-110.2,437.5h-114.9l-111.7-437.5v437.5H1706.8z"/>
		<path fill-rule="evenodd" clip-rule="evenodd" d="M2520.5,378.9c-14.7,7.4-35.1,14.2-61.3,20.5c-24.2,5.2-36.2,7.9-36.2,7.9
			c-18.8,5.2-32.5,12.1-40.9,20.5c-7.3,11.6-11,23.1-11,34.6c0,15.8,4.7,28.4,14.2,37.8c9.4,8.4,23,12.6,40.9,12.6
			c29.4,0,52.4-8.4,69.3-25.2c16.8-16.9,25.2-39.9,25.2-69.3V378.9z M2545.7,572.5c-22,11.5-45.6,18.3-70.8,20.4
			c-24.2,3.2-45.6,4.8-64.5,4.8c-37.8,0-70.9-10-99.2-29.9c-28.3-21-42.5-55.1-42.5-102.3c0-44,12.6-75.5,37.7-94.4
			c26.3-18.9,59.3-31.5,99.2-37.8c5.3,0,11.6-0.5,18.9-1.6c7.4-2,15.8-3.7,25.2-4.7c46.2-6.3,69.3-19.9,69.3-40.9
			c0-15.7-8.4-25.7-25.2-29.9c-15.7-5.2-30.4-7.9-44.1-7.9c-14.7,0-27.8,2.1-39.3,6.3c-11.6,4.2-19.9,12.1-25.2,23.6h-105.4
			c4.2-32.5,18.9-59.3,44-80.2c28.3-24.1,68.7-36.2,121.2-36.2c58.7,0,102.8,9.9,132.2,29.9c30.4,21,45.7,50.4,45.7,88.2V423
			c0,42-7.9,75.1-23.6,99.2C2584.5,545.2,2566.7,562,2545.7,572.5"/>
		<path fill-rule="evenodd" clip-rule="evenodd" d="M2638.5,589.8v-203c0-41,5.7-75,17.4-102.3c12.5-28.4,29.4-50.9,50.3-67.7
			c19.9-15.7,43-27.3,69.3-34.6c27.2-7.3,55.1-10.9,83.4-10.9h7.9h7.8v111.6h-36.2c-30.4,0-53,7.4-67.7,22.1
			c-14.7,14.7-22,37.8-22,69.3v215.6H2638.5z"/>
		<path fill-rule="evenodd" clip-rule="evenodd" d="M2995.8,171.2v154.2l133.7-154.2h132.2l-149.5,160.5l151.1,258.2h-132.2
			L3054,448.2c-15.7-28.3-29.4-40.4-40.9-36.2c-11.5,4.2-17.3,10.5-17.3,18.9v58.3v100.7h-110.2V48.5h56.7
			c14.7,0,27.2,5.2,37.8,15.7c10.5,10.5,15.7,22.6,15.8,36.2V171.2z"/>
		<path fill-rule="evenodd" clip-rule="evenodd" d="M3527.4,460.7h78.6c-11.5,44.1-33.5,77.7-66.1,100.8
			c-32.5,24.2-73.4,36.2-122.8,36.2c-59.8,0-106.5-19.4-140.1-58.2c-33.5-37.7-50.3-91.8-50.3-162.1c0-67.2,16.2-119.6,48.8-157.4
			c33.5-38.8,80.2-58.2,140-58.2c62.9,0,111.8,18.9,146.4,56.7c33.6,38.8,50.4,92.8,50.4,162.1v11v6.3c0,5.3-0.5,8.9-1.5,11h-272.3
			c1,32.6,8.9,56.7,23.6,72.4c13.7,16.9,34.1,25.2,61.4,25.2c17.8,0,33.1-3.6,45.7-11c3.1-1.1,5.7-2.6,7.9-4.7
			c3.1-3.1,6.3-6.3,9.4-9.5c1.1-3.1,4.7-7.3,11-12.6C3504.8,463.4,3514.7,460.7,3527.4,460.7 M3338.5,338H3499
			c-2.1-28.3-9.5-49.3-22.1-63c-13.7-14.6-33-22-58.3-22c-23.1,0-41.9,7.3-56.7,22C3347.4,289.8,3339.5,310.7,3338.5,338"/>
		<path fill-rule="evenodd" clip-rule="evenodd" d="M3815.3,589.8c-34.6,2.1-72.4,1.6-113.3-1.6c-39.9-3.1-59.8-28.9-59.8-77.1V48.5
			h56.7c13.6,0,25.7,5.2,36.1,15.7c10.5,10.5,15.8,23.1,15.8,37.8v70.8h64.6v22.1c0,15.7-5.2,28.9-15.8,39.4
			c-10.5,9.4-23,14.1-37.7,14.1h-11v232.9c0,17.9,10.5,26.8,31.5,26.8h33.1V589.8z"/>
		<path fill-rule="evenodd" clip-rule="evenodd" d="M1666.5,589.8h-55.1c-15.8,0-28.9-4.7-39.4-14.2c-9.4-10.5-14.2-23.6-14.2-39.3
			V322.2c0-25.2-7.9-43.5-23.6-55c-14.7-11.6-31.5-17.3-50.4-17.3c-18.9,0-35.7,5.8-50.4,17.3c-14.6,11.5-22.1,29.9-22.1,55v267.6
			h-110.1V344.3c0-71.3,18.4-119,55.1-143.2c37.7-24.1,79.2-37.2,124.3-39.3c46.1,0,88.6,12.1,127.4,36.2
			c38.8,24.1,58.2,72.9,58.2,146.3V589.8z M1175,48.5h56.7c14.7,0,27.3,5.2,37.8,15.7c10.5,10.5,15.7,23.1,15.7,37.8v33H1175V48.5z
			 M1175,171.2h56.7c14.7,0,27.3,5.2,37.8,15.7c10.5,10.5,15.7,23.1,15.7,37.8v365.1H1175V171.2z M1156.1,589.8
			c-34.6,2.1-72.4,1.6-113.3-1.6c-39.9-3.1-59.8-28.9-59.8-77.1V48.5h56.7c13.7,0,25.7,5.2,36.2,15.7c10.5,10.5,15.7,23.1,15.8,37.8
			v70.8h64.5v22.1c0,15.7-5.3,28.9-15.8,39.4c-10.5,9.4-23.1,14.1-37.7,14.1h-11v232.9c0,17.9,10.5,26.8,31.5,26.8h33.1V589.8z
			 M889,572.5c-22.1,11.5-45.6,18.3-70.8,20.4c-24.1,3.2-45.6,4.8-64.5,4.8c-37.7,0-70.8-10-99.2-29.9
			c-28.3-21-42.5-55.1-42.5-102.3c0-44,12.6-75.5,37.7-94.4c26.3-18.9,59.3-31.5,99.2-37.8c5.2,0,11.6-0.5,18.9-1.6
			c7.3-2,15.7-3.7,25.2-4.7c46.2-6.3,69.3-19.9,69.3-40.9c0-15.7-8.4-25.7-25.2-29.9c-15.8-5.2-30.4-7.9-44.1-7.9
			c-14.7,0-27.8,2.1-39.3,6.3c-11.5,4.2-19.9,12.1-25.2,23.6H623.1c4.2-32.5,18.8-59.3,44.1-80.2c28.3-24.1,68.7-36.2,121.2-36.2
			c58.7,0,102.8,9.9,132.2,29.9c30.4,21,45.6,50.4,45.6,88.2V423c0,42-7.8,75.1-23.6,99.2C927.9,545.2,910,562,889,572.5
			 M863.9,378.9c-14.7,7.4-35.2,14.2-61.4,20.5l-36.1,7.9c-18.9,5.2-32.6,12.1-41,20.5c-7.3,11.6-10.9,23.1-10.9,34.6
			c0,15.8,4.7,28.4,14.1,37.8c9.4,8.4,23.1,12.6,41,12.6c29.3,0,52.4-8.4,69.2-25.2c16.8-16.9,25.2-39.9,25.2-69.3V378.9z
			 M492.5,48.5h56.7c14.7,0,27.3,5.2,37.7,15.7c10.5,9.4,15.7,21.5,15.8,36.2v489.5H492.5V48.5z M173.8,298.7h108.6
			c29.3,0,50.3-6.3,62.9-18.9c13.6-11.6,20.5-31.5,20.5-59.8c0-24.1-6.3-43.5-18.9-58.2c-14.7-12.6-34.2-18.9-58.2-18.9H173.8V298.7
			z M173.8,396.2v193.6H62V105c0-15.7,5.2-28.8,15.8-39.3c11.5-11.6,25.1-17.3,40.9-17.3h184.2c57.7,0,100.7,14.7,129,44
			c29.3,29.4,44.1,72.9,44.1,130.6c0,54.6-14.2,97.6-42.5,129.1c-28.3,29.3-69.2,44-122.7,44H173.8z"/>
		<path fill-rule="evenodd" clip-rule="evenodd" d="M1666.5,589.8h-55.1c-15.8,0-28.9-4.7-39.4-14.2c-9.4-10.5-14.2-23.6-14.2-39.3
			V322.2c0-25.2-7.9-43.5-23.6-55c-14.6-11.6-31.5-17.3-50.3-17.3c-18.9,0-35.7,5.8-50.4,17.3c-14.6,11.5-22.1,29.9-22.1,55v267.6
			h-110.1V344.3c0-71.3,18.4-119,55.1-143.2c37.7-24.1,79.2-37.2,124.3-39.3c46.1,0,88.6,12.1,127.4,36.2
			c38.8,24.1,58.3,72.9,58.3,146.3V589.8z"/>
		<path fill-rule="evenodd" clip-rule="evenodd" d="M1175,48.5h56.7c14.7,0,27.3,5.2,37.8,15.7c10.5,10.5,15.7,23.1,15.7,37.8v33
			H1175V48.5z"/>
		<path fill-rule="evenodd" clip-rule="evenodd" d="M1175,171.2h56.7c14.7,0,27.3,5.2,37.8,15.7c10.5,10.5,15.7,23.1,15.7,37.8
			v365.1H1175V171.2z"/>
		<path fill-rule="evenodd" clip-rule="evenodd" d="M1156.1,589.8c-34.6,2.1-72.4,1.6-113.3-1.6c-39.9-3.1-59.8-28.9-59.8-77.1V48.5
			h56.7c13.7,0,25.7,5.2,36.2,15.7c10.5,10.5,15.7,23.1,15.8,37.8v70.8h64.5v22.1c0,15.7-5.3,28.9-15.8,39.4
			c-10.5,9.4-23.1,14.1-37.7,14.1h-11v232.9c0,17.9,10.5,26.8,31.5,26.8h33.1V589.8z"/>
		<path fill-rule="evenodd" clip-rule="evenodd" d="M492.5,48.5h56.7c14.7,0,27.3,5.2,37.7,15.7c10.5,9.4,15.7,21.5,15.8,36.2v489.5
			H492.5V48.5z"/>
	</g>
</g>
</svg>
