<?xml version="1.0" encoding="utf-8"?>
<!-- Generator: Adobe Illustrator 18.1.0, SVG Export Plug-In . SVG Version: 6.00 Build 0)  -->
<svg version="1.1" xmlns="http://www.w3.org/2000/svg" xmlns:xlink="http://www.w3.org/1999/xlink" x="0px" y="0px"
	 viewBox="0 0 9280 1400" enable-background="new 0 0 9280 1400" xml:space="preserve">
<g id="katman_2">
</g>
<g id="katman_1">
	<g>
		<path fill-rule="evenodd" clip-rule="evenodd" d="M4071.9,1355.8V167.5c0-38.5,12.9-70.5,38.5-96.3
			c28.3-28.3,61.7-43.7,100.4-46.3h266.1l262.4,1014.3L5001.4,25h405v1330.8h-254.6V283.5l-270,1072.3h-281.6L4326.5,283.5v1072.3
			H4071.9z"/>
		<path fill-rule="evenodd" clip-rule="evenodd" d="M6066,838.8c-36.1,18.2-86.1,34.8-150.3,50.2c-59.3,12.9-88.8,19.3-88.8,19.3
			c-46.2,12.9-79.7,29.6-100.3,50.2c-17.9,28.4-27,56.6-27,84.8c0,38.7,11.6,69.5,34.7,92.6c23.1,20.7,56.5,30.9,100.3,30.9
			c72.1,0,128.5-20.6,169.8-61.6c41.1-41.3,61.6-97.8,61.6-169.8V838.8z M6127.7,1313.4c-54,28.2-111.9,45-173.5,50
			c-59.3,7.8-111.8,11.7-158.1,11.7c-92.6,0-173.7-24.4-243.1-73.3c-69.4-51.4-104-135-104-250.7c0-107.9,30.8-185.1,92.5-231.3
			c64.4-46.3,145.3-77.1,243-92.7c13,0,28.3-1.3,46.3-3.9c18.2-5,38.6-9,61.7-11.6c113.1-15.4,169.8-48.8,169.8-100.3
			c0-38.5-20.5-62.9-61.7-73.2c-38.5-12.8-74.6-19.3-108.1-19.3c-35.9,0-68.1,5.2-96.3,15.4c-28.3,10.3-48.9,29.6-61.8,57.9h-258.4
			c10.2-79.7,46.3-145.3,107.9-196.6c69.4-59.2,168.4-88.8,297-88.8c143.9,0,252,24.3,323.9,73.2c74.6,51.5,111.9,123.5,111.9,216.1
			v351c0,102.8-19.3,184-57.8,243C6222.9,1246.4,6179.2,1287.5,6127.7,1313.4"/>
		<path fill-rule="evenodd" clip-rule="evenodd" d="M6355.2,1355.8V858.3c0-100.4,14.1-183.9,42.6-250.7
			c30.7-69.5,72-124.8,123.3-166c48.9-38.6,105.5-66.8,169.8-84.9c66.7-17.9,135-26.8,204.4-26.8h19.3h19.2v273.6h-88.7
			c-74.6,0-130,18.2-165.9,54.1c-35.9,36.1-54,92.6-54,169.8v528.5H6355.2z"/>
		<path fill-rule="evenodd" clip-rule="evenodd" d="M7231,329.8v377.9l327.8-377.9h324l-366.4,393.3l370.2,632.7h-324l-189-347.2
			c-38.5-69.4-72-99.1-100.3-88.7c-28.2,10.3-42.4,25.8-42.4,46.2v142.9v246.8h-270.1V28.9h138.9c35.9,0,66.7,12.8,92.6,38.5
			c25.8,25.7,38.5,55.4,38.6,88.7V329.8z"/>
		<path fill-rule="evenodd" clip-rule="evenodd" d="M8533.7,1039.3h192.7c-28.2,108.1-82.2,190.3-162,246.9
			c-79.6,59.3-180,88.8-300.9,88.8c-146.5,0-261.1-47.6-343.3-142.8c-82.2-92.5-123.3-225-123.3-397.3
			c0-164.6,39.8-293.1,119.6-385.8c82.2-95.1,196.6-142.7,343.2-142.7c154.2,0,274,46.3,358.8,138.9
			c82.2,95.1,123.4,227.5,123.4,397.3v27v15.4c0,13-1.2,21.8-3.8,27h-667.3c2.5,79.8,21.9,138.8,57.8,177.4
			c33.5,41.3,83.5,61.7,150.4,61.7c43.7,0,81.1-8.8,111.9-26.9c7.6-2.6,14-6.5,19.2-11.6c7.7-7.7,15.4-15.5,23.2-23.2
			c2.6-7.6,11.5-18,27-30.8C8478.4,1045.8,8502.7,1039.3,8533.7,1039.3 M8070.8,738.6h393.5c-5.2-69.4-23.2-120.9-54.1-154.5
			c-33.5-35.9-80.9-53.8-142.8-53.8c-56.6,0-102.7,18-138.9,53.8C8092.7,620.3,8073.3,671.7,8070.8,738.6"/>
		<path fill-rule="evenodd" clip-rule="evenodd" d="M9239.5,1355.8c-84.8,5.1-177.4,3.9-277.7-3.9c-97.8-7.7-146.5-70.7-146.5-189
			V28.9h138.9c33.4,0,63.1,12.8,88.6,38.5c25.7,25.7,38.6,56.7,38.6,92.6v173.5h158.2v54.1c0,38.6-12.9,70.7-38.7,96.5
			c-25.6,23.1-56.5,34.6-92.5,34.6h-27v570.8c0,43.8,25.7,65.7,77.2,65.7h81V1355.8z"/>
		<path fill-rule="evenodd" clip-rule="evenodd" d="M3973,1355.8h-135c-38.6,0-70.9-11.6-96.5-34.8c-23.1-25.8-34.7-57.8-34.7-96.4
			V699.9c0-61.7-19.4-106.7-57.9-134.9c-35.9-28.3-77.2-42.5-123.4-42.5c-46.4,0-87.5,14.2-123.4,42.5
			c-35.9,28.2-54.1,73.2-54.1,134.9v655.9h-270V753.9c0-174.7,45-291.7,135.1-351c92.5-59.1,194.1-91.3,304.7-96.4
			c113,0,217.2,29.6,312.4,88.8C3925.4,454.5,3973,574,3973,753.9V1355.8z M2768.4,28.9h138.9c35.9,0,66.8,12.8,92.6,38.5
			c25.6,25.7,38.5,56.7,38.5,92.6v81h-270V28.9z M2768.4,329.8h138.9c35.9,0,66.8,12.8,92.6,38.5c25.6,25.7,38.5,56.7,38.5,92.6
			v894.9h-270V329.8z M2722.1,1355.8c-84.9,5.1-177.5,3.9-277.8-3.9c-97.8-7.6-146.7-70.7-146.7-189V28.9h138.9
			c33.5,0,63.1,12.8,88.7,38.5c25.7,25.7,38.5,56.7,38.7,92.6v173.5h158.1v54.1c0,38.6-12.9,70.7-38.6,96.4
			c-25.7,23.1-56.6,34.6-92.5,34.6h-27v570.8c0,43.8,25.7,65.6,77.1,65.6h81V1355.8z M2067.5,1313.4c-54.1,28.2-111.8,45-173.6,50
			c-59.2,7.8-111.8,11.7-158.1,11.7c-92.5,0-173.5-24.4-243-73.3c-69.3-51.4-104-135-104-250.7c0-107.9,30.8-185.1,92.5-231.3
			c64.4-46.3,145.3-77.1,243-92.7c12.7,0,28.3-1.3,46.3-3.9c18-5,38.5-9,61.7-11.6c113.1-15.4,169.8-48.8,169.8-100.3
			c0-38.5-20.6-62.9-61.8-73.2c-38.6-12.9-74.5-19.3-108.1-19.3c-35.9,0-68.1,5.2-96.4,15.4c-28.2,10.3-48.9,29.6-61.8,57.9h-258.4
			c10.3-79.7,46.2-145.3,108.1-196.6c69.4-59.2,168.3-88.8,297-88.8c143.8,0,252,24.3,323.9,73.2c74.6,51.5,111.8,123.5,111.8,216.1
			v351c0,102.9-19.1,184-57.9,243C2162.7,1246.4,2118.9,1287.5,2067.5,1313.4 M2005.9,838.8c-36.1,18.2-86.2,34.8-150.5,50.2
			l-88.6,19.3c-46.4,12.9-79.8,29.6-100.5,50.2c-18,28.4-26.8,56.6-26.8,84.8c0,38.7,11.5,69.5,34.6,92.6
			c23.1,20.7,56.7,30.9,100.4,30.9c71.9,0,128.5-20.6,169.7-61.6c41.1-41.3,61.8-97.8,61.8-169.8V838.8z M1095.5,28.9h138.9
			c36,0,66.8,12.8,92.5,38.5c25.7,23.1,38.6,52.8,38.7,88.7v1199.7h-270.1V28.9z M314.4,642.1h266.2c71.8,0,123.3-15.3,154.2-46.3
			c33.4-28.3,50.2-77.2,50.2-146.7c0-59.1-15.5-106.6-46.3-142.7c-36-30.9-83.7-46.3-142.7-46.3H314.4V642.1z M314.4,881.3v474.5
			h-274V167.5c0-38.5,12.9-70.5,38.7-96.3c28.1-28.3,61.5-42.4,100.1-42.4h451.3c141.4,0,246.8,35.9,316.3,107.9
			c71.9,72,108.1,178.7,108.1,320.1c0,133.8-34.7,239.1-104.2,316.4C881.5,845.2,781.1,881.3,650,881.3H314.4z"/>
		<path fill-rule="evenodd" clip-rule="evenodd" d="M3973,1355.8h-135c-38.6,0-70.9-11.6-96.5-34.8c-23.1-25.8-34.7-57.8-34.7-96.4
			V699.9c0-61.7-19.4-106.7-57.9-134.9c-35.9-28.3-77.2-42.5-123.4-42.5c-46.4,0-87.5,14.2-123.4,42.5
			c-35.9,28.2-54.1,73.2-54.1,134.9v655.9h-270V753.9c0-174.7,45-291.7,135.1-351c92.5-59.1,194.1-91.3,304.7-96.4
			c113,0,217.2,29.6,312.4,88.8C3925.4,454.5,3973,574,3973,753.9V1355.8z"/>
		<path fill-rule="evenodd" clip-rule="evenodd" d="M2768.4,28.9h138.9c35.9,0,66.8,12.8,92.6,38.5c25.6,25.7,38.5,56.7,38.5,92.6
			v81h-270V28.9z"/>
		<path fill-rule="evenodd" clip-rule="evenodd" d="M2768.4,329.8h138.9c35.9,0,66.8,12.8,92.6,38.5c25.6,25.7,38.5,56.7,38.5,92.6
			v894.9h-270V329.8z"/>
		<path fill-rule="evenodd" clip-rule="evenodd" d="M2722.1,1355.8c-84.9,5.1-177.5,3.9-277.8-3.9c-97.8-7.7-146.7-70.7-146.7-189
			V28.9h138.9c33.5,0,63,12.8,88.7,38.5c25.7,25.7,38.5,56.7,38.7,92.6v173.5h158.1v54.1c0,38.6-12.9,70.7-38.6,96.5
			c-25.7,23.1-56.6,34.6-92.5,34.6h-27v570.8c0,43.8,25.7,65.7,77.1,65.7h81V1355.8z"/>
		<path fill-rule="evenodd" clip-rule="evenodd" d="M1095.5,28.9h138.9c36,0,66.8,12.8,92.5,38.5c25.7,23.1,38.6,52.8,38.7,88.7
			v1199.7h-270.1V28.9z"/>
	</g>
</g>
</svg>
